<?xml version="1.0" standalone="no"?>
<!DOCTYPE svg PUBLIC "-//W3C//DTD SVG 20010904//EN"
 "http://www.w3.org/TR/2001/REC-SVG-20010904/DTD/svg10.dtd">
<svg version="1.0" xmlns="http://www.w3.org/2000/svg"
 width="480.000000pt" height="480.000000pt" viewBox="0 0 480.000000 480.000000"
 preserveAspectRatio="xMidYMid meet">
<metadata>
Created by potrace 1.14, written by Peter Selinger 2001-2017
</metadata>
<g transform="translate(0.000000,480.000000) scale(0.100000,-0.100000)"
fill="#000000" stroke="none">
<path d="M0 2400 l0 -2400 2400 0 2400 0 0 2400 0 2400 -2400 0 -2400 0 0
-2400z m3679 2087 c102 -204 159 -388 176 -564 l8 -72 -56 -25 c-30 -13 -72
-35 -92 -49 l-36 -25 90 6 91 5 0 -29 c0 -45 -19 -152 -42 -237 -18 -70 -24
-80 -52 -92 -145 -62 -305 -150 -294 -160 2 -2 35 3 73 10 105 20 181 22 177
4 -6 -29 -83 -148 -153 -239 -207 -268 -531 -524 -1119 -885 -267 -164 -408
-263 -487 -341 -40 -39 -73 -69 -73 -67 0 10 58 117 108 198 171 276 343 474
724 832 404 379 569 592 678 870 38 97 90 287 90 328 0 11 -20 -28 -44 -87
-127 -311 -299 -544 -661 -898 -567 -554 -692 -688 -825 -891 -71 -108 -150
-261 -195 -379 -68 -174 -124 -445 -126 -603 0 -34 -4 -80 -8 -102 l-7 -40
-12 65 c-36 202 -46 322 -46 555 -1 185 3 265 17 350 75 454 252 790 628 1191
95 101 285 287 451 442 l36 34 49 -33 c26 -18 72 -55 101 -82 28 -28 52 -47
52 -43 0 12 -68 140 -99 186 l-31 45 163 165 c184 186 260 271 372 415 73 93
201 279 253 369 18 30 25 36 36 26 8 -6 46 -75 85 -153z m-2410 -3322 l83
-106 -47 -50 c-149 -159 -149 -428 -1 -587 59 -63 126 -99 214 -114 179 -30
345 49 422 202 85 170 56 376 -72 509 l-39 42 81 102 c45 56 85 102 89 102 29
0 138 -129 180 -212 90 -180 79 -430 -25 -610 -47 -79 -153 -176 -243 -221
-115 -58 -205 -75 -354 -70 -140 6 -216 26 -317 85 -280 164 -383 543 -228
836 29 54 150 197 167 197 3 0 44 -47 90 -105z m541 -287 c67 -34 92 -84 87
-173 -10 -176 -130 -295 -301 -295 -90 0 -160 24 -213 73 -50 46 -70 80 -89
152 -14 50 -19 187 -8 197 3 4 29 -5 57 -18 81 -37 119 -32 242 31 122 62 156
67 225 33z"/>
<path d="M1818 652 c-10 -27 -36 -70 -59 -95 -49 -56 -35 -63 19 -9 24 24 43
56 51 84 18 65 10 79 -11 20z"/>
</g>
</svg>
